<svg xmlns="http://www.w3.org/2000/svg" xmlns:xlink="http://www.w3.org/1999/xlink" width="26" height="32" version="1.1" viewBox="0 0 26 32"><path fill="#000" d="M-0.007 28.236l13.916-13.916 0.754 0.754-13.916 13.916-0.754-0.754z"/><path fill="#000" d="M9.973 10.453h4.267v1.067h-4.267v-1.067z"/><path fill="#000" d="M21.707 10.453h4.267v1.067h-4.267v-1.067z"/><path fill="#000" d="M17.44 14.72h1.067v4.267h-1.067v-4.267z"/><path fill="#000" d="M17.44 2.987h1.067v4.267h-1.067v-4.267z"/><path fill="#000" d="M23.991 5.717l-3.017 3.017-0.754-0.754 3.017-3.017 0.754 0.754z"/><path fill="#000" d="M23.246 17.042l-3.017-3.017 0.754-0.754 3.017 3.017-0.754 0.754z"/><path fill="#000" d="M14.986 8.741l-3.017-3.017 0.754-0.754 3.017 3.017-0.754 0.754z"/></svg>